<svg height="606" width="720" xmlns="http://www.w3.org/2000/svg">
<rect height="606" fill="#555" width="720"></rect>
<text fill="#7f7" font-family="Courier New" font-size="12" xml:space="preserve">
<tspan x="10" y="26">6 megabytes installed</tspan>
<tspan x="10" y="42"></tspan>
<tspan x="10" y="58">node_modules</tspan>
<tspan x="10" y="74">└─┬ dreamjs@0.1.8 </tspan>
<tspan x="10" y="90">  ├─┬ chai@3.5.0 </tspan>
<tspan x="10" y="106">  │ ├── assertion-error@1.0.2 </tspan>
<tspan x="10" y="122">  │ ├─┬ deep-eql@0.1.3 </tspan>
<tspan x="10" y="138">  │ │ └── type-detect@0.1.1 </tspan>
<tspan x="10" y="154">  │ └── type-detect@1.0.0 </tspan>
<tspan x="10" y="170">  ├── chance@0.8.0 </tspan>
<tspan x="10" y="186">  ├─┬ describe-json@0.0.6 </tspan>
<tspan x="10" y="202">  │ ├── kindof@1.0.0 </tspan>
<tspan x="10" y="218">  │ └── traverse@0.6.6 </tspan>
<tspan x="10" y="234">  ├── lodash@3.10.1 </tspan>
<tspan x="10" y="250">  ├─┬ mocha@2.5.3 </tspan>
<tspan x="10" y="266">  │ ├── commander@2.3.0 </tspan>
<tspan x="10" y="282">  │ ├─┬ debug@2.2.0 </tspan>
<tspan x="10" y="298">  │ │ └── ms@0.7.1 </tspan>
<tspan x="10" y="314">  │ ├── diff@1.4.0 </tspan>
<tspan x="10" y="330">  │ ├── escape-string-regexp@1.0.2 </tspan>
<tspan x="10" y="346">  │ ├─┬ glob@3.2.11 </tspan>
<tspan x="10" y="362">  │ │ ├── inherits@2.0.3 </tspan>
<tspan x="10" y="378">  │ │ └─┬ minimatch@0.3.0 </tspan>
<tspan x="10" y="394">  │ │   ├── lru-cache@2.7.3 </tspan>
<tspan x="10" y="410">  │ │   └── sigmund@1.0.1 </tspan>
<tspan x="10" y="426">  │ ├── growl@1.9.2 </tspan>
<tspan x="10" y="442">  │ ├─┬ jade@0.26.3 </tspan>
<tspan x="10" y="458">  │ │ ├── commander@0.6.1 </tspan>
<tspan x="10" y="474">  │ │ └── mkdirp@0.3.0 </tspan>
<tspan x="10" y="490">  │ ├─┬ mkdirp@0.5.1 </tspan>
<tspan x="10" y="506">  │ │ └── minimist@0.0.8 </tspan>
<tspan x="10" y="522">  │ ├── supports-color@1.2.0 </tspan>
<tspan x="10" y="538">  │ └── to-iso-string@0.0.2 </tspan>
<tspan x="10" y="554">  └─┬ randexp@0.4.5 </tspan>
<tspan x="10" y="570">    ├── discontinuous-range@1.0.0 </tspan>
<tspan x="10" y="586">    └── ret@0.1.14</tspan>
</text>
</svg>
